<?xml version="1.0" encoding="UTF-8"?>
<svg id="Capa_2" data-name="Capa 2" xmlns="http://www.w3.org/2000/svg" viewBox="0 0 173.5 173.5">
  <g id="Master_Layer_4" data-name="Master Layer 4">
    <path d="M34.7,0h34.7v17.35h-17.35v17.35h-17.35V0ZM34.7,86.75h-17.35v-52.05h17.35v52.05ZM52.05,104.1h-17.35v-17.35h17.35v17.35ZM69.4,121.45v-17.35h-17.35v17.35H17.35v-17.35H0v17.35h17.35v17.35h34.7v34.7h17.35v-34.7h17.35v-17.35h-17.35ZM69.4,121.45v17.35h-17.35v-17.35h17.35ZM121.45,17.35v17.35h-52.05v-17.35h52.05ZM156.15,34.7h-17.35v-17.35h-17.35V0h34.7v34.7ZM156.15,86.75v-52.05h17.35v52.05h-17.35ZM138.8,104.1v-17.35h17.35v17.35h-17.35ZM121.45,121.45v-17.35h17.35v17.35h-17.35ZM121.45,138.8h-17.35v-17.35h17.35v17.35ZM121.45,138.8h17.35v34.7h-17.35v-34.7Z"/>
  </g>
</svg>