<?xml version="1.0" encoding="UTF-8"?>
<svg id="Capa_2" data-name="Capa 2" xmlns="http://www.w3.org/2000/svg" viewBox="0 0 29 26">
  <defs>
    <style>
      .cls-1 {
        fill: #3d3d3d;
      }
    </style>
  </defs>
  <g id="Capa_1-2" data-name="Capa 1">
    <path class="cls-1" d="M15.82,0h-2.64v5.2h2.64V0ZM18.45,7.8h-7.91v2.6h-2.64v5.2h2.64v5.2h7.91v-5.2h2.64v-5.2h-2.64v-2.6ZM18.45,10.4v5.2h-2.64v2.6h-2.64v-2.6h-2.64v-5.2h7.91ZM10.55,23.4h7.91v2.6h-7.91v-2.6ZM29,11.7v2.6h-5.27v-2.6h5.27ZM5.27,14.3v-2.6H0v2.6h5.27ZM21.09,5.2h2.64v2.6h-2.64v-2.6ZM23.73,5.2h2.64v-2.6h-2.64v2.6ZM5.27,5.2h2.64v2.6h-2.64v-2.6ZM5.27,5.2v-2.6h-2.64v2.6h2.64Z"/>
  </g>
</svg>