<?xml version="1.0" encoding="UTF-8"?>
<svg id="Capa_2" data-name="Capa 2" xmlns="http://www.w3.org/2000/svg" viewBox="0 0 312 312">
  <g id="Capa_1-2" data-name="Capa 1">
    <path d="M169,0h-26v52h26V0ZM0,143v26h52v-26H0ZM312,143v26h-52v-26h52ZM169,312h-26v-52h26v52ZM104,78h104v26h-104v-26ZM78,104h26v104h-26v-104ZM104,234v-26h104v26h-104ZM234,208h-26v-104h26v104ZM260,26h26v26h-26v-26ZM260,52v26h-26v-26h26ZM286,286h-26v-26h26v26ZM260,260h-26v-26h26v26ZM52,26h-26v26h26v26h26v-26h-26v-26ZM26,286h26v-26h26v-26h-26v26h-26v26Z"/>
  </g>
</svg>